<svg version="1.1" id="Layer_1" xmlns="http://www.w3.org/2000/svg" xmlns:xlink="http://www.w3.org/1999/xlink" x="0px" y="0px"
	 width="100%" viewBox="0 0 220 220" enable-background="new 0 0 220 220" xml:space="preserve">
<path fill="#FFFFFE" opacity="1.000000" stroke="none" 
	d="
M148.000000,221.000000 
	C98.666672,221.000000 49.833340,221.000000 1.000006,221.000000 
	C1.000004,147.666672 1.000004,74.333351 1.000002,1.000016 
	C74.333321,1.000011 147.666641,1.000011 220.999969,1.000005 
	C220.999985,74.333321 220.999985,147.666641 221.000000,220.999969 
	C196.833328,221.000000 172.666672,221.000000 148.000000,221.000000 
M121.047623,6.112170 
	C106.058434,4.397431 93.989471,9.724348 84.389137,21.181017 
	C71.917801,36.063816 75.234604,56.312160 91.823700,66.252518 
	C92.756042,66.811180 93.631790,67.464287 94.537727,68.076035 
	C94.231010,68.510086 94.171944,68.694992 94.067207,68.726089 
	C93.111740,69.009827 92.157822,69.309593 91.185814,69.525208 
	C73.658936,73.413078 63.532070,84.283691 60.009960,101.832191 
	C56.365646,119.989548 57.826702,137.926834 61.395641,155.858719 
	C63.006680,163.953262 66.045433,170.437912 76.450562,168.830292 
	C76.602829,171.755463 76.736221,174.044937 76.838745,176.335800 
	C77.240448,185.312317 77.221718,194.331329 78.135323,203.255081 
	C79.199379,213.648193 87.436928,218.687042 97.499458,216.026489 
	C105.322571,213.958054 108.028229,207.772003 109.652977,200.978973 
	C111.285606,194.153000 112.271103,187.172256 113.540184,180.259354 
	C114.627243,181.066406 114.885330,181.902130 115.035667,182.756821 
	C116.418434,190.618149 117.572418,198.526978 119.214897,206.333221 
	C120.673386,213.265015 124.861862,217.402481 130.063263,217.907562 
	C138.363861,218.713608 145.653839,213.802597 146.633499,205.553970 
	C147.688736,196.668991 147.946091,187.641052 147.826752,178.685165 
	C147.767410,174.233139 149.145874,172.476395 153.350677,171.694260 
	C159.382126,170.572342 162.338196,167.066589 163.053787,161.269104 
	C166.030029,137.156021 165.972366,113.150604 160.859558,89.269821 
	C158.512375,78.306717 151.669815,71.395409 140.662277,69.278748 
	C139.060394,68.970718 137.554413,68.164085 135.338043,67.340782 
	C136.914032,66.099617 137.669586,65.486870 138.443237,64.897903 
	C154.919403,52.354973 155.897659,29.327108 140.534515,15.282398 
	C135.230255,10.433344 128.989761,7.466481 121.047623,6.112170 
z"/>
<path fill="#7EF04B" opacity="1.000000" stroke="none" 
	d="
M121.490097,6.149005 
	C128.989761,7.466481 135.230255,10.433344 140.534515,15.282398 
	C155.897659,29.327108 154.919403,52.354973 138.443237,64.897903 
	C137.669586,65.486870 136.914032,66.099617 135.338043,67.340782 
	C137.554413,68.164085 139.060394,68.970718 140.662277,69.278748 
	C151.669815,71.395409 158.512375,78.306717 160.859558,89.269821 
	C165.972366,113.150604 166.030029,137.156021 163.053787,161.269104 
	C162.338196,167.066589 159.382126,170.572342 153.350677,171.694260 
	C149.145874,172.476395 147.767410,174.233139 147.826752,178.685165 
	C147.946091,187.641052 147.688736,196.668991 146.633499,205.553970 
	C145.653839,213.802597 138.363861,218.713608 130.063263,217.907562 
	C124.861862,217.402481 120.673386,213.265015 119.214897,206.333221 
	C117.572418,198.526978 116.418434,190.618149 115.035667,182.756821 
	C114.885330,181.902130 114.627243,181.066406 113.540184,180.259354 
	C112.271103,187.172256 111.285606,194.153000 109.652977,200.978973 
	C108.028229,207.772003 105.322571,213.958054 97.499458,216.026489 
	C87.436928,218.687042 79.199379,213.648193 78.135323,203.255081 
	C77.221718,194.331329 77.240448,185.312317 76.838745,176.335800 
	C76.736221,174.044937 76.602829,171.755463 76.450562,168.830292 
	C66.045433,170.437912 63.006680,163.953262 61.395641,155.858719 
	C57.826702,137.926834 56.365646,119.989548 60.009960,101.832191 
	C63.532070,84.283691 73.658936,73.413078 91.185814,69.525208 
	C92.157822,69.309593 93.111740,69.009827 94.067207,68.726089 
	C94.171944,68.694992 94.231010,68.510086 94.537727,68.076035 
	C93.631790,67.464287 92.756042,66.811180 91.823700,66.252518 
	C75.234604,56.312160 71.917801,36.063816 84.389137,21.181017 
	C93.989471,9.724348 106.058434,4.397431 121.490097,6.149005 
z"/>
</svg>